<?xml version="1.0" encoding="UTF-8" standalone="no"?>
<!-- Created with Inkscape (http://www.inkscape.org/) -->

<svg
   version="1.1"
   id="svg2"
   xml:space="preserve"
   width="566.92932"
   height="566.92932"
   viewBox="0 0 566.92932 566.92932"
   sodipodi:docname="star.svg"
   inkscape:version="1.1.2 (0a00cf5339, 2022-02-04)"
   xmlns:inkscape="http://www.inkscape.org/namespaces/inkscape"
   xmlns:sodipodi="http://sodipodi.sourceforge.net/DTD/sodipodi-0.dtd"
   xmlns="http://www.w3.org/2000/svg"
   xmlns:svg="http://www.w3.org/2000/svg"><defs
     id="defs6"><clipPath
       clipPathUnits="userSpaceOnUse"
       id="clipPath18"><path
         d="M 0,425.197 H 425.197 V 0 H 0 Z"
         id="path16" /></clipPath><clipPath
       clipPathUnits="userSpaceOnUse"
       id="clipPath28"><path
         d="M 0,0 H 425.197 V 425.197 H 0 Z"
         id="path26" /></clipPath></defs><sodipodi:namedview
     id="namedview4"
     pagecolor="#ffffff"
     bordercolor="#666666"
     borderopacity="1.0"
     inkscape:pageshadow="2"
     inkscape:pageopacity="0.0"
     inkscape:pagecheckerboard="0"
     showgrid="false"
     inkscape:zoom="1.3793607"
     inkscape:cx="283.10217"
     inkscape:cy="283.10217"
     inkscape:window-width="1920"
     inkscape:window-height="1016"
     inkscape:window-x="0"
     inkscape:window-y="0"
     inkscape:window-maximized="1"
     inkscape:current-layer="g8" /><g
     id="g8"
     inkscape:groupmode="layer"
     inkscape:label="star"
     transform="matrix(1.3333333,0,0,-1.3333333,0,566.92933)"><g
       id="g10"><g
         id="g12"><g
           id="g14"
           clip-path="url(#clipPath18)"><path
             d="M 0,0 H 425.197 V 425.197 H 0 Z"
             style="fill:#000000;fill-opacity:1;fill-rule:nonzero;stroke:none"
             id="path20" /></g></g></g><g
       id="g22"><g
         id="g24"
         clip-path="url(#clipPath28)"><g
           id="g30"
           transform="translate(416.6929,129.1505)"><path
             d="m 0,0 -0.574,-2.299 -2.873,-0.574 -2.872,0.574 -136.446,24.705 25.278,-139.607 -1.723,-3.446 h -1.15 c -1.149,0.382 -2.111,0.862 -2.872,1.436 -0.767,0.575 -1.437,1.245 -2.011,2.01 l -78.708,114.328 -78.995,-114.328 c -0.387,-0.573 -1.005,-1.196 -1.867,-1.866 -0.862,-0.674 -1.771,-1.198 -2.729,-1.58 l -2.298,0.574 -0.575,2.872 25.279,139.607 -139.606,-25.279 -3.447,1.724 v 0.862 c 0.383,1.149 0.905,2.154 1.579,3.016 0.671,0.861 1.293,1.48 1.868,1.867 l 114.327,78.996 -114.327,78.707 c -0.766,0.574 -1.436,1.245 -2.01,2.011 -0.576,0.762 -1.054,1.624 -1.437,2.586 l 0.575,2.01 2.872,1.149 139.606,-25.279 -24.704,136.447 -0.575,2.872 1.724,3.447 h 1.149 c 0.762,-0.387 1.48,-0.818 2.155,-1.293 0.67,-0.478 1.479,-1.196 2.441,-2.154 l 78.995,-114.04 78.708,114.04 c 0.762,1.149 1.48,1.962 2.155,2.441 0.67,0.475 1.579,0.815 2.728,1.006 l 1.724,-0.574 1.149,-2.873 -0.575,-2.872 -24.703,-136.447 136.446,24.704 2.872,0.575 L 0,168.331 v -1.435 c -0.191,-0.767 -0.623,-1.581 -1.293,-2.443 -0.674,-0.861 -1.392,-1.58 -2.154,-2.154 L -117.487,83.592 -3.447,4.596 C -2.49,3.635 -1.771,2.825 -1.293,2.155 -0.818,1.48 -0.387,0.762 0,0"
             style="fill:#ffffff;fill-opacity:1;fill-rule:nonzero;stroke:none"
             id="path32" /></g></g></g></g></svg>
