<?xml version="1.0" encoding="UTF-8" standalone="no"?>
<svg
   version="1.0"
   width="2000.000000pt"
   height="2000.000000pt"
   viewBox="0 0 2000.000000 2000.000000"
   preserveAspectRatio="xMidYMid meet"
   id="svg8"
   sodipodi:docname="ACORDE.svg"
   inkscape:version="1.2.2 (b0a8486541, 2022-12-01)"
   xmlns:inkscape="http://www.inkscape.org/namespaces/inkscape"
   xmlns:sodipodi="http://sodipodi.sourceforge.net/DTD/sodipodi-0.dtd"
   xmlns="http://www.w3.org/2000/svg"
   xmlns:svg="http://www.w3.org/2000/svg">
  <defs
     id="defs12" />
  <sodipodi:namedview
     id="namedview10"
     pagecolor="#ffffff"
     bordercolor="#000000"
     borderopacity="0.25"
     inkscape:showpageshadow="2"
     inkscape:pageopacity="0.0"
     inkscape:pagecheckerboard="0"
     inkscape:deskcolor="#d1d1d1"
     inkscape:document-units="pt"
     showgrid="false"
     inkscape:zoom="0.2955"
     inkscape:cx="1333.3333"
     inkscape:cy="1333.3333"
     inkscape:window-width="1850"
     inkscape:window-height="1011"
     inkscape:window-x="0"
     inkscape:window-y="0"
     inkscape:window-maximized="1"
     inkscape:current-layer="g6" />
  <g
     transform="translate(0.000000,2000.000000) scale(0.100000,-0.100000)"
     fill="#000000"
     stroke="none"
     id="g6">
    <path
       d="m 19285,13715 c -12856.6667,4190 -6428.333,2095 0,0 z m -4815,3395 c 172,-12 285,-32 408,-71 426,-137 651,-432 737,-970 24,-154 36,-413 24,-568 -23,-318 -99,-992 -250,-2216 -161,-1305 -188,-1532 -249,-2070 -106,-942 -192,-1805 -265,-2650 -20,-231 -38,-426 -40,-433 -4,-10 -120,-12 -557,-10 l -553,3 -17,235 c -102,1381 -235,2749 -443,4555 -143,1241 -236,2110 -266,2490 -14,182 -7,498 16,645 112,729 487,1042 1280,1068 22,1 101,-3 175,-8 z M 8685,14120 c 735,-34 1344,-133 1890,-307 61,-19 114,-39 119,-43 8,-8 -771,-1670 -783,-1670 -3,0 -26,32 -49,71 -207,334 -574,576 -1062,699 -246,62 -476,89 -810,97 -881,20 -1534,-157 -2032,-551 l -78,-61 178,-12 c 97,-7 224,-22 282,-33 689,-137 1034,-662 914,-1390 -89,-534 -490,-926 -1066,-1044 -242,-49 -552,-48 -810,4 -623,126 -1100,593 -1228,1202 -48,228 -52,545 -10,788 113,648 509,1177 1191,1591 664,403 1455,610 2524,662 155,8 632,6 830,-3 z m 3859,-3656 c 3,-9 6,-1081 6,-2382 0,-2541 -1,-2458 49,-2605 73,-210 220,-317 436,-317 153,0 278,53 375,157 125,134 178,295 220,667 33,294 59,890 60,1339 v 167 h 645 645 v -317 c 0,-1635 -259,-2624 -832,-3179 -156,-151 -310,-258 -510,-354 -357,-170 -766,-250 -1283,-250 -413,0 -701,42 -1014,146 -611,203 -1029,644 -1249,1320 -20,63 -40,113 -43,111 -3,-1 -52,-58 -109,-127 -211,-256 -549,-570 -810,-752 -585,-407 -1270,-630 -2115,-689 -245,-17 -726,-7 -921,20 -394,54 -683,140 -1009,301 -286,141 -483,281 -719,510 -416,404 -651,870 -738,1465 -29,199 -32,621 -5,815 159,1142 809,1816 2332,2415 538,212 1034,363 1915,585 1089,274 1357,371 1653,604 101,78 251,233 302,309 l 38,57 h 1337 c 1211,0 1338,-2 1344,-16 z"
       id="path2"
       sodipodi:nodetypes="cccccccccccccccccccccsccccccccccccccccscsccccccsccsccccccccccccccccsc" />
    <path
       d="M9800 8898 c-107 -50 -384 -171 -615 -270 -554 -238 -669 -290 -927 -419 -616 -308 -1008 -570 -1324 -884 -257 -256 -383 -455 -451 -713 -23 -85 -26 -118 -26 -257 -1 -792 506 -1223 1403 -1192 362 13 643 79 925 216 393 192 709 511 917 926 169 336 264 707 298 1160 11 159 14 1526 3 1524 -5 -1 -96 -42 -203 -91z"
       id="path4"
       style="fill:#ffffff" />
  </g>
</svg>
