<?xml version="1.0" standalone="no"?>
<!DOCTYPE svg PUBLIC "-//W3C//DTD SVG 20010904//EN"
 "http://www.w3.org/TR/2001/REC-SVG-20010904/DTD/svg10.dtd">
<svg version="1.0" xmlns="http://www.w3.org/2000/svg"
 width="2000.000000pt" height="2000.000000pt" viewBox="0 0 2000.000000 2000.000000"
 preserveAspectRatio="xMidYMid meet">

<g transform="translate(0.000000,2000.000000) scale(0.100000,-0.100000)"
fill="#000000" stroke="none">
<path d="M9540 19989 c-769 -35 -1550 -162 -2291 -374 -2372 -678 -4420 -2222
-5732 -4320 -1143 -1829 -1658 -3961 -1481 -6130 221 -2721 1571 -5253 3714
-6970 1038 -832 2227 -1446 3499 -1810 1792 -512 3710 -512 5502 0 2372 678
4420 2222 5732 4320 492 788 877 1653 1132 2544 607 2126 490 4429 -330 6466
-1025 2547 -3023 4545 -5570 5570 -1303 525 -2750 769 -4175 704z m4930 -2879
c172 -12 285 -32 408 -71 426 -137 651 -432 737 -970 24 -154 36 -413 24 -568
-23 -318 -99 -992 -250 -2216 -161 -1305 -188 -1532 -249 -2070 -106 -942
-192 -1805 -265 -2650 -20 -231 -38 -426 -40 -433 -4 -10 -120 -12 -557 -10
l-553 3 -17 235 c-102 1381 -235 2749 -443 4555 -143 1241 -236 2110 -266
2490 -14 182 -7 498 16 645 112 729 487 1042 1280 1068 22 1 101 -3 175 -8z
m-5785 -2990 c735 -34 1344 -133 1890 -307 61 -19 114 -39 119 -43 8 -8 -771
-1670 -783 -1670 -3 0 -26 32 -49 71 -207 334 -574 576 -1062 699 -246 62
-476 89 -810 97 -881 20 -1534 -157 -2032 -551 l-78 -61 178 -12 c97 -7 224
-22 282 -33 689 -137 1034 -662 914 -1390 -89 -534 -490 -926 -1066 -1044
-242 -49 -552 -48 -810 4 -623 126 -1100 593 -1228 1202 -48 228 -52 545 -10
788 113 648 509 1177 1191 1591 664 403 1455 610 2524 662 155 8 632 6 830 -3z
m3859 -3656 c3 -9 6 -1081 6 -2382 0 -2541 -1 -2458 49 -2605 73 -210 220
-317 436 -317 153 0 278 53 375 157 125 134 178 295 220 667 33 294 59 890 60
1339 l0 167 645 0 645 0 0 -317 c0 -1635 -259 -2624 -832 -3179 -156 -151
-310 -258 -510 -354 -357 -170 -766 -250 -1283 -250 -413 0 -701 42 -1014 146
-611 203 -1029 644 -1249 1320 -20 63 -40 113 -43 111 -3 -1 -52 -58 -109
-127 -211 -256 -549 -570 -810 -752 -585 -407 -1270 -630 -2115 -689 -245 -17
-726 -7 -921 20 -394 54 -683 140 -1009 301 -286 141 -483 281 -719 510 -416
404 -651 870 -738 1465 -29 199 -32 621 -5 815 159 1142 809 1816 2332 2415
538 212 1034 363 1915 585 1089 274 1357 371 1653 604 101 78 251 233 302 309
l38 57 1337 0 c1211 0 1338 -2 1344 -16z"/>
<path d="M9800 8898 c-107 -50 -384 -171 -615 -270 -554 -238 -669 -290 -927
-419 -616 -308 -1008 -570 -1324 -884 -257 -256 -383 -455 -451 -713 -23 -85
-26 -118 -26 -257 -1 -792 506 -1223 1403 -1192 362 13 643 79 925 216 393
192 709 511 917 926 169 336 264 707 298 1160 11 159 14 1526 3 1524 -5 -1
-96 -42 -203 -91z"/>
</g>
</svg>
