<?xml version="1.0" standalone="no"?>
<!DOCTYPE svg PUBLIC "-//W3C//DTD SVG 20010904//EN"
 "http://www.w3.org/TR/2001/REC-SVG-20010904/DTD/svg10.dtd">
<svg version="1.0" xmlns="http://www.w3.org/2000/svg"
 width="202.000000pt" height="202.000000pt" viewBox="0 0 202.000000 202.000000"
 preserveAspectRatio="xMidYMid meet">

<g transform="translate(0.000000,202.000000) scale(0.100000,-0.100000)"
fill="#000000" stroke="none">
<path d="M935 1456 c-210 -49 -351 -197 -387 -403 -33 -195 78 -411 255 -496
155 -75 382 -72 545 5 l47 23 3 73 3 73 -69 -35 c-98 -49 -174 -69 -267 -69
-216 0 -370 132 -383 327 -11 169 78 307 235 366 115 44 308 21 431 -51 18
-10 35 -19 38 -19 2 0 4 31 4 70 l0 70 -37 15 c-129 54 -309 76 -418 51z"/>
<path d="M1425 878 c-27 -15 -35 -28 -35 -60 0 -64 80 -91 119 -42 27 35 26
59 -4 89 -26 27 -49 31 -80 13z"/>
</g>
</svg>
